<?xml version="1.0" encoding="UTF-8"?>
<svg xmlns="http://www.w3.org/2000/svg" version="1.1" viewBox="0 0 274.6 22.4">
  <defs>
    <style>
      .cls-1 {
        fill: #fff;
      }
    </style>
  </defs>
  <!-- Generator: Adobe Illustrator 28.7.1, SVG Export Plug-In . SVG Version: 1.2.0 Build 142)  -->
  <g>
    <g id="Layer_1">
      <g>
        <path class="cls-1" d="M16.2,7.6c-.2-.7-.5-1.3-.9-1.9-.4-.6-.9-1.1-1.4-1.5-.5-.4-1.1-.8-1.8-1-.6-.3-1.3-.4-1.9-.4s-1.5.2-2.1.6-.9,1.1-.9,1.9.3,1.2.8,1.7c.5.5,1.2.9,2,1.2s1.6.8,2.5,1.1c.9.4,1.7.8,2.5,1.4.8.5,1.4,1.2,2,1.9s.8,1.7.8,2.8-.2,1.5-.5,2.1c-.3.6-.7,1.2-1.3,1.6-.6.4-1.2.8-2,1-.8.2-1.7.4-2.7.4s-.9,0-1.4-.1c-.5,0-.9-.2-1.4-.3-.4-.1-.9-.2-1.4-.3-.5,0-.9-.1-1.4-.1s-.2,0-.3,0c-.1,0-.2,0-.4,0-.1,0-.3,0-.4.1-.1,0-.2,0-.3.1-.1-1-.3-2-.5-3.1-.2-1-.4-2.1-.6-3.1h.6c.2.7.5,1.3,1,2,.5.7,1,1.2,1.6,1.8.6.5,1.3.9,2,1.2.7.3,1.4.5,2.1.5s1.1,0,1.6-.1c.5,0,.9-.2,1.3-.5.4-.2.6-.5.8-.8.2-.4.3-.8.3-1.3s-.3-1.4-.8-1.9c-.5-.5-1.2-1-2-1.4-.8-.4-1.6-.8-2.6-1.2-.9-.4-1.8-.8-2.6-1.3-.8-.5-1.5-1.1-2-1.7-.5-.7-.8-1.5-.8-2.5,0-1.7.5-3,1.6-3.7,1-.8,2.6-1.2,4.7-1.2s1.1,0,1.6.1c.5,0,1,.2,1.4.3.5.1.9.2,1.3.3.4,0,.8.1,1.1.1h1c0,.3,0,.6,0,.9s0,.6,0,.8c0,.5,0,1.1,0,1.6,0,.6,0,1.1.1,1.6h-.6Z"/>
        <path class="cls-1" d="M22.4,19.5c.5,0,1,0,1.4-.1s.7-.2.9-.4.4-.5.5-.8c0-.3.1-.8.1-1.4V6.2c0-.7,0-1.2,0-1.6,0-.4-.2-.7-.4-1-.2-.2-.5-.4-.8-.5-.4-.1-.9-.2-1.5-.3v-.7c1.6.1,3.1.2,4.7.2s3.1,0,4.7-.2v.7c-.7,0-1.2.2-1.6.3-.4.1-.7.3-.9.5-.2.2-.3.6-.4,1,0,.4,0,.9,0,1.6v3.6h9.1v-3.6c0-.7,0-1.2,0-1.6,0-.4-.2-.7-.4-1-.2-.2-.5-.4-.9-.5-.4-.1-.9-.2-1.6-.3v-.7c1.6.1,3.2.2,4.8.2s3.1,0,4.7-.2v.7c-.7,0-1.2.2-1.6.3-.4.1-.7.3-.9.5-.2.2-.3.6-.4,1,0,.4,0,.9,0,1.6v10.6c0,.6,0,1,.1,1.4,0,.3.2.6.5.8.2.2.5.3.9.4s.8.1,1.4.1v.7c-.8,0-1.6,0-2.4,0-.8,0-1.6,0-2.4,0s-1.6,0-2.3,0c-.8,0-1.6,0-2.3,0v-.7c.5,0,1,0,1.4-.1.4,0,.7-.2.9-.4.2-.2.4-.5.5-.8,0-.3.1-.8.1-1.4v-5.9h-9.1v5.9c0,.6,0,1,.1,1.4,0,.3.2.6.5.8s.5.3.9.4c.4,0,.8.1,1.4.1v.7c-.8,0-1.6,0-2.4,0-.8,0-1.6,0-2.4,0s-1.5,0-2.3,0c-.8,0-1.5,0-2.3,0v-.7Z"/>
        <path class="cls-1" d="M47.2,19.5c.5,0,.9-.2,1.3-.3.3-.2.6-.4.8-.6s.4-.6.6-.9c.2-.3.4-.7.5-1.2l5.3-12.5-.5-1.3c.6-.1,1.2-.2,1.7-.4.6-.2,1.1-.4,1.6-.6l5.9,16.1c.2.6.6,1,1.1,1.3.5.3,1.1.4,1.7.4v.7c-.3,0-.7,0-1.2,0-.4,0-.9,0-1.3,0s-.9,0-1.3,0h-1.1c-.8,0-1.5,0-2.3,0-.8,0-1.5,0-2.3,0v-.7c.9,0,1.6-.2,2.1-.5.5-.2.7-.6.7-1.1s0-.4,0-.6c0-.3-.1-.5-.2-.8s-.2-.5-.3-.8c-.1-.3-.2-.5-.3-.7l-.9-2.7h-5.4l-1.4,3.8c0,.3-.2.5-.3.7-.1.2-.1.5-.1.9s0,.4.2.6c.2.2.4.3.6.5.2.1.5.3.8.3.3,0,.5.2.8.2v.7c-.6,0-1.2,0-1.8,0-.6,0-1.2,0-1.8,0s-1.1,0-1.6,0c-.5,0-1.1,0-1.6,0v-.7ZM58.5,11.4l-2.2-6.4h0l-2.4,6.4h4.7Z"/>
        <path class="cls-1" d="M66.7,2.2c1.5.1,3,.2,4.5.2s1.6,0,2.4,0c.8,0,1.6,0,2.4-.1v.7c-.3,0-.6,0-.9.1-.3,0-.6.1-.8.3s-.4.3-.5.5c-.1.2-.2.5-.2.8s.1.8.4,1.5c.3.7.6,1.6,1.1,2.7.4,1.1.9,2.2,1.5,3.5s1.1,2.7,1.7,4.1c.6-1.5,1.2-2.9,1.7-4.2.5-1.3,1-2.5,1.4-3.5.4-1,.7-1.9,1-2.6.2-.7.4-1.2.4-1.5s0-.6-.3-.8c-.2-.2-.4-.4-.7-.5-.3-.1-.5-.2-.8-.3s-.5,0-.8,0v-.7c.6,0,1.2,0,1.8.1.6,0,1.2,0,1.8,0s1.1,0,1.6,0c.5,0,1.1,0,1.6-.1v.7c-.3,0-.6.2-.9.2-.3,0-.5.2-.7.3-.2.1-.3.3-.5.5-.1.2-.3.4-.4.7-1.4,2.9-2.7,5.6-3.8,8.2-1.1,2.5-2.1,5-3,7.5h-1.5c-.5-1.2-1.1-2.4-1.6-3.7-.5-1.3-1.1-2.6-1.7-3.9-.6-1.3-1.1-2.7-1.7-4s-1.2-2.7-1.8-4c-.3-.6-.6-1-1-1.3s-1-.5-1.7-.6v-.7Z"/>
        <path class="cls-1" d="M89.7,19.5c.6,0,1.1-.1,1.5-.2.4-.1.7-.3.9-.5.2-.2.3-.6.4-.9s0-.8,0-1.4V6c0-.5,0-1,0-1.3,0-.4-.2-.7-.4-1-.2-.3-.5-.5-.9-.6-.4-.1-.9-.2-1.5-.2v-.8c.9,0,1.9,0,2.8.1.9,0,1.9,0,2.8,0,1.8,0,3.5,0,5.3,0,1.7,0,3.5,0,5.3-.1,0,.3,0,.7,0,1v1c0,.6,0,1.1,0,1.7,0,.5,0,1,.2,1.5h-.6c-.4-1.3-1.1-2.3-2.1-3-1-.7-2.3-1.1-4.2-1.1h-3.1v6.6h1.4c.5,0,.9,0,1.4-.2.5-.1.9-.3,1.3-.6s.7-.6,1-1.1c.3-.4.5-1,.7-1.6h.5c0,.6,0,1.3,0,1.9,0,.7,0,1.3,0,1.9s0,1.3,0,2c0,.6,0,1.3,0,2h-.5c-.1-.7-.4-1.2-.6-1.7-.3-.5-.6-.8-1-1.1s-.8-.5-1.2-.6c-.5-.1-1-.2-1.5-.2h-1.4v8.1c.4.1.9.2,1.5.3s1.1,0,1.8,0c1.8,0,3.4-.4,4.8-1.3,1.4-.8,2.7-2.2,3.7-3.9l.5.4c-.5,1-.9,1.9-1.3,2.9-.4,1-.8,2-1.1,3-1.4,0-2.8,0-4.2,0-1.4,0-2.8,0-4.2,0h-2.5c-.8,0-1.5,0-2.2,0s-1.3,0-1.8,0c-.5,0-1,0-1.3,0v-.7Z"/>
        <path class="cls-1" d="M114.6,5.5c0-.5,0-.9-.2-1.2-.1-.3-.3-.6-.6-.8-.2-.2-.5-.3-.9-.4-.3,0-.7-.2-1.2-.2v-.7c1.6.1,3.3.2,4.9.2s3.4,0,5-.2v.7c-.4,0-.8.1-1.3.2-.4,0-.8.2-1.1.4-.3.2-.6.4-.8.8s-.3.7-.3,1.2v13.5c.3,0,.6.1,1.1.2.5,0,.9,0,1.5,0,1,0,1.9,0,2.7-.3.8-.2,1.5-.5,2.1-.9s1.2-1,1.7-1.6c.5-.6,1-1.4,1.4-2.3l.7.3c-.5.9-.9,1.9-1.2,2.9-.4,1-.7,2-.9,3-1.3,0-2.5,0-3.8,0-1.3,0-2.5,0-3.8,0s-2.6,0-3.9,0c-1.3,0-2.6,0-3.9,0v-.7c.4,0,.7,0,1.1,0,.3,0,.7-.1.9-.3.3-.1.5-.3.7-.6s.2-.6.2-1V5.5Z"/>
        <path class="cls-1" d="M135.6,5.5c0-.5,0-.9-.2-1.2-.1-.3-.3-.6-.6-.8-.2-.2-.5-.3-.9-.4-.3,0-.7-.2-1.2-.2v-.7c1.6.1,3.3.2,4.9.2s3.4,0,5-.2v.7c-.4,0-.8.1-1.3.2-.4,0-.8.2-1.1.4-.3.2-.6.4-.8.8s-.3.7-.3,1.2v13.5c.3,0,.6.1,1.1.2.5,0,.9,0,1.5,0,1,0,1.9,0,2.7-.3.8-.2,1.5-.5,2.1-.9s1.2-1,1.7-1.6c.5-.6,1-1.4,1.4-2.3l.7.3c-.5.9-.9,1.9-1.2,2.9-.4,1-.7,2-.9,3-1.3,0-2.5,0-3.8,0-1.3,0-2.5,0-3.8,0s-2.6,0-3.9,0c-1.3,0-2.6,0-3.9,0v-.7c.4,0,.7,0,1.1,0,.3,0,.7-.1.9-.3.3-.1.5-.3.7-.6s.2-.6.2-1V5.5Z"/>
        <path class="cls-1" d="M149.3,2.2c.8,0,1.6,0,2.4.1.8,0,1.6,0,2.4,0,1.7,0,3.3,0,4.9-.2v.7c-.6,0-1.2.1-1.6.3s-.7.6-.7,1.1.2.5.5,1c.3.5.7,1.1,1.2,1.7.5.7,1,1.4,1.6,2.2.6.8,1.1,1.5,1.6,2.3.1-.2.3-.5.5-.8s.5-.8.7-1.2c.3-.4.5-.9.8-1.4.3-.5.5-.9.7-1.4s.4-.8.5-1.2c.1-.4.2-.6.2-.8,0-.6-.2-1.1-.6-1.3-.4-.2-.9-.4-1.4-.4v-.7c.6,0,1.3,0,1.9.1.6,0,1.3,0,1.9,0s1.2,0,1.7,0c.6,0,1.2,0,1.7-.1v.7c-.5,0-1,.1-1.4.3-.4.2-.8.5-1.1.8-.4.4-.7.8-1,1.3-.3.5-.7,1.1-1.1,1.7l-3.5,5.2v4.9c0,.5,0,.9.1,1.2,0,.3.2.6.4.8.2.2.5.3.9.4.4,0,.9.1,1.5.1v.7c-.8,0-1.5,0-2.3,0-.8,0-1.5,0-2.3,0s-1.6,0-2.4,0c-.8,0-1.6,0-2.4,0v-.7c.6,0,1.1,0,1.5-.1.4,0,.7-.2.9-.4.2-.2.4-.4.4-.8,0-.3.1-.7.1-1.2v-4.7l-5.7-7.5c-.5-.6-1-1.1-1.5-1.5-.5-.4-1.2-.5-2-.5v-.7Z"/>
        <path class="cls-1" d="M198.8,7.9c-.2-1-.5-1.8-.8-2.4-.3-.6-.8-1-1.2-1.4-.5-.3-1.1-.5-1.7-.6-.6,0-1.4-.1-2.2-.1v13c0,.6,0,1.1,0,1.5,0,.4.2.7.4.9.2.2.5.4.9.5.4.1.9.2,1.6.2v.5c-.8,0-1.5,0-2.3,0-.8,0-1.6,0-2.3,0s-1.7,0-2.5,0c-.8,0-1.7,0-2.5,0v-.5c.7,0,1.2-.1,1.6-.2.4-.1.7-.3.9-.5s.3-.6.4-.9c0-.4,0-.9,0-1.5V3.4c-.8,0-1.5,0-2.2.1-.6,0-1.2.3-1.7.6-.5.3-.9.8-1.2,1.4-.3.6-.6,1.4-.8,2.4h-.7c0-.3,0-.7,0-1,0-.4,0-.8,0-1.2,0-.4,0-.9,0-1.5s0-1.2,0-2c1.4,0,2.7,0,4,.1,1.3,0,2.7,0,4,0s2.7,0,4.1,0c1.4,0,2.7,0,4.1-.1,0,.7,0,1.4,0,2s0,1.1,0,1.5c0,.4,0,.8,0,1.2,0,.4,0,.7,0,1h-.6Z"/>
        <path class="cls-1" d="M203.2,19.5c.5,0,1,0,1.4-.1s.7-.2.9-.4c.2-.2.4-.5.5-.8,0-.3.1-.8.1-1.4V6.2c0-.7,0-1.2,0-1.6,0-.4-.2-.7-.4-1-.2-.2-.5-.4-.8-.5-.4-.1-.9-.2-1.5-.3v-.7c1.6.1,3.1.2,4.7.2s3.1,0,4.7-.2v.7c-.7,0-1.2.2-1.6.3-.4.1-.7.3-.9.5-.2.2-.3.6-.4,1,0,.4,0,.9,0,1.6v3.6h9.1v-3.6c0-.7,0-1.2,0-1.6,0-.4-.2-.7-.4-1-.2-.2-.5-.4-.9-.5-.4-.1-.9-.2-1.6-.3v-.7c1.6.1,3.2.2,4.8.2s3.1,0,4.7-.2v.7c-.7,0-1.2.2-1.6.3-.4.1-.7.3-.9.5-.2.2-.3.6-.4,1,0,.4,0,.9,0,1.6v10.6c0,.6,0,1,.1,1.4,0,.3.2.6.5.8.2.2.5.3.9.4s.8.1,1.4.1v.7c-.8,0-1.6,0-2.4,0-.8,0-1.6,0-2.4,0s-1.6,0-2.3,0c-.8,0-1.6,0-2.3,0v-.7c.5,0,1,0,1.4-.1s.7-.2.9-.4c.2-.2.4-.5.5-.8,0-.3.1-.8.1-1.4v-5.9h-9.1v5.9c0,.6,0,1,.1,1.4,0,.3.2.6.5.8s.5.3.9.4.8.1,1.4.1v.7c-.8,0-1.6,0-2.4,0-.8,0-1.6,0-2.4,0s-1.5,0-2.3,0c-.8,0-1.5,0-2.3,0v-.7Z"/>
        <path class="cls-1" d="M229.1,19.5c.6,0,1.1-.1,1.5-.2.4-.1.7-.3.9-.5.2-.2.3-.6.4-.9s0-.8,0-1.4V6c0-.5,0-1,0-1.3,0-.4-.2-.7-.4-1-.2-.3-.5-.5-.9-.6-.4-.1-.9-.2-1.5-.2v-.8c.9,0,1.9,0,2.8.1.9,0,1.9,0,2.8,0,1.8,0,3.5,0,5.3,0,1.7,0,3.5,0,5.3-.1,0,.3,0,.7,0,1v1c0,.6,0,1.1,0,1.7,0,.5,0,1,.2,1.5h-.6c-.4-1.3-1.1-2.3-2.1-3-1-.7-2.3-1.1-4.2-1.1h-3.1v6.6h1.4c.5,0,.9,0,1.4-.2.5-.1.9-.3,1.3-.6s.7-.6,1-1.1c.3-.4.5-1,.7-1.6h.5c0,.6,0,1.3,0,1.9,0,.7,0,1.3,0,1.9s0,1.3,0,2c0,.6,0,1.3,0,2h-.5c-.1-.7-.4-1.2-.6-1.7-.3-.5-.6-.8-1-1.1s-.8-.5-1.2-.6c-.5-.1-1-.2-1.5-.2h-1.4v8.1c.4.1.9.2,1.5.3s1.1,0,1.8,0c1.8,0,3.4-.4,4.8-1.3,1.4-.8,2.7-2.2,3.7-3.9l.5.4c-.5,1-.9,1.9-1.3,2.9-.4,1-.8,2-1.1,3-1.4,0-2.8,0-4.2,0-1.4,0-2.8,0-4.2,0h-2.5c-.8,0-1.5,0-2.2,0s-1.3,0-1.8,0c-.5,0-1,0-1.3,0v-.7Z"/>
        <path class="cls-1" d="M250.6,19.5c.9-.1,1.5-.3,2-.4.5-.1.9-.4,1.1-.7.3-.3.4-.7.5-1.2,0-.5.1-1.1.1-2V4.7c-.1-.3-.4-.5-.7-.7-.3-.2-.6-.4-.9-.5s-.7-.3-1-.4-.7-.2-1-.3v-.7c.5,0,.9,0,1.4.1.5,0,1,0,1.4,0,1.3,0,2.5,0,3.7-.2,1.8,2.3,3.7,4.5,5.5,6.6,1.9,2.1,3.7,4.4,5.4,6.7h0v-2.2c0-.9,0-1.8,0-2.8,0-1,0-1.9-.1-2.8s-.1-1.7-.2-2.3c0-.5-.2-.9-.4-1.2s-.4-.5-.7-.7-.6-.3-.9-.4c-.4,0-.8-.2-1.2-.3v-.7c.6,0,1.3,0,1.9.1.6,0,1.3,0,1.9,0,1.3,0,2.5,0,3.8-.2v.7c-.7,0-1.3.1-1.7.3s-.7.4-.9.8c-.2.4-.3.9-.4,1.5,0,.6,0,1.5,0,2.5v12.5h-1.6c-.5-.8-1.2-1.7-1.9-2.7s-1.4-1.9-2.2-2.9c-.8-1-1.5-1.9-2.3-2.8-.8-.9-1.5-1.8-2.2-2.6-.7-.8-1.4-1.6-2-2.3-.6-.7-1.1-1.2-1.5-1.7v9.2c0,.9,0,1.7.1,2.2,0,.6.2,1,.5,1.3.2.3.6.6,1.1.7s1.1.3,1.9.4v.7c-.7,0-1.3,0-2,0-.7,0-1.3,0-2,0s-1.5,0-2.2,0c-.7,0-1.5,0-2.2,0v-.7Z"/>
      </g>
    </g>
  </g>
</svg>